<?xml version="1.0" standalone="no"?><!DOCTYPE svg PUBLIC "-//W3C//DTD SVG 1.1//EN" "http://www.w3.org/Graphics/SVG/1.1/DTD/svg11.dtd"><svg t="1596174376417" class="icon" viewBox="0 0 1024 1024" version="1.1" xmlns="http://www.w3.org/2000/svg" p-id="1882" xmlns:xlink="http://www.w3.org/1999/xlink" width="200" height="200"><defs><style type="text/css"></style></defs><path d="M0 0h1024v1024H0z" fill="#FFFFFF" p-id="1883"></path><path d="M512 405.333333a106.666667 106.666667 0 1 1-106.666667 106.666667 106.666667 106.666667 0 0 1 106.666667-106.666667m0-64a170.666667 170.666667 0 1 0 170.666667 170.666667 170.666667 170.666667 0 0 0-170.666667-170.666667z" fill="#6B747C" p-id="1884"></path><path d="M575.466667 106.666667a0.586667 0.586667 0 0 1 0.533333 0.533333v131.52l40 16A278.506667 278.506667 0 0 1 682.666667 293.333333l34.026666 26.666667 37.333334-21.333333 76.8-44.32a0.533333 0.533333 0 0 1 0.533333 0.32l63.466667 109.866666a0.586667 0.586667 0 0 1 0 0.746667l-76.586667 44.213333-37.333333 21.333334 5.92 42.666666a274.666667 274.666667 0 0 1 0 77.12l-5.92 42.666667 37.333333 21.333333 76.586667 44.213334a0.586667 0.586667 0 0 1 0 0.746666l-63.466667 109.866667a0.48 0.48 0 0 1-0.48 0h-0.266667l-76.586666-44.213333-37.333334-21.6L682.666667 730.666667a278.506667 278.506667 0 0 1-66.56 38.506666l-40 16v131.626667a0.586667 0.586667 0 0 1-0.533334 0.533333H448.533333a0.586667 0.586667 0 0 1-0.533333-0.533333v-131.52l-40-16A278.506667 278.506667 0 0 1 341.333333 730.666667l-34.026666-26.666667-37.333334 21.6-76.8 44.32a0.533333 0.533333 0 0 1-0.533333-0.32l-63.466667-109.866667a0.586667 0.586667 0 0 1 0-0.746666l76.586667-44.213334 37.333333-21.333333-5.92-42.666667a274.666667 274.666667 0 0 1 0-77.12l5.92-42.666666-37.333333-21.333334-76.32-44.64a0.586667 0.586667 0 0 1 0-0.746666l63.466667-109.866667a0.48 0.48 0 0 1 0.48-0.266667h0.266666L270.026667 298.666667l37.333333 21.333333L341.333333 293.333333a278.506667 278.506667 0 0 1 66.666667-38.453333l40-16V107.2a0.586667 0.586667 0 0 1 0.533333-0.533333h126.933334m0-64H448.533333A64.533333 64.533333 0 0 0 384 107.2v88.373333a340.533333 340.533333 0 0 0-81.973333 47.413334l-76.586667-44.213334a64.426667 64.426667 0 0 0-88.16 23.626667l-63.466667 109.866667a64.586667 64.586667 0 0 0 23.626667 88.213333l76.586667 44.16a335.466667 335.466667 0 0 0 0 94.72l-76.586667 44.16a64.586667 64.586667 0 0 0-23.626667 88.213333l63.466667 109.866667a64.426667 64.426667 0 0 0 88.16 23.626667l76.586667-44.213334A340.533333 340.533333 0 0 0 384 828.426667v88.373333A64.533333 64.533333 0 0 0 448.533333 981.333333h126.933334a64.533333 64.533333 0 0 0 64.533333-64.533333v-88.373333a340.533333 340.533333 0 0 0 81.973333-47.413334l76.586667 44.213334a64.426667 64.426667 0 0 0 88.16-23.626667l63.466667-109.866667a64.586667 64.586667 0 0 0-23.626667-88.213333l-76.586667-44.16a335.466667 335.466667 0 0 0 0-94.72l76.586667-44.16a64.586667 64.586667 0 0 0 23.626667-88.213333l-63.466667-109.866667a64.426667 64.426667 0 0 0-88.16-23.626667l-76.586667 44.213334A340.533333 340.533333 0 0 0 640 195.573333V107.2A64.533333 64.533333 0 0 0 575.466667 42.666667z" fill="#6B747C" p-id="1885"></path></svg>